﻿<svg xmlns="http://www.w3.org/2000/svg" width="100%" height="100%" viewBox="0 0 1600 900" style=""><path fill="#0099ff" width="1600" height="900" d="M0 0 L1600 0 L1600 900 L0 900 Z" class="qkNQwWCg_0"></path><defs><radialGradient id="a" cx="800" cy="371" r="36.4%" gradientUnits="userSpaceOnUse"><stop offset="0" stop-color="#0099ff"></stop><stop offset="1" stop-color="#04C"></stop></radialGradient><radialGradient id="b" cx="800" cy="371" r="60%" gradientUnits="userSpaceOnUse"><stop offset="0" stop-color="#0EF" stop-opacity="1"></stop><stop offset="1" stop-color="#0EF" stop-opacity="0"></stop></radialGradient></defs><path fill="url(#a)" width="1600" height="900" d="M0 0 L1600 0 L1600 900 L0 900 Z" class="qkNQwWCg_1"></path><g fill="none" stroke="#03E" stroke-width="15.2" stroke-miterlimit="10" stroke-opacity="0.35"><path d="M2277.4,1152L800-1407-677.4,1152Z" class="qkNQwWCg_2"></path><path d="M800-1372.9-648.8,1136.5L2248.8,1136.5Z" class="qkNQwWCg_3"></path><path d="M800-1338.8-620.2,1121.1L2220.2,1121.1Z" class="qkNQwWCg_4"></path><path d="M800-1304.7-591.6,1105.6L2191.6,1105.6Z" class="qkNQwWCg_5"></path><path d="M800-1270.6-563,1090.2L2163,1090.2Z" class="qkNQwWCg_6"></path><path d="M800-1236.5-534.4,1074.7L2134.4,1074.7Z" class="qkNQwWCg_7"></path><path d="M800-1202.4-505.8,1059.3L2105.8,1059.3Z" class="qkNQwWCg_8"></path><path d="M800-1168.3-477.2,1043.8L2077.2,1043.8Z" class="qkNQwWCg_9"></path><path d="M800-1134.2-448.6,1028.4L2048.6,1028.4Z" class="qkNQwWCg_10"></path><path d="M800-1100.1-420,1012.9L2020,1012.9Z" class="qkNQwWCg_11"></path><path d="M800-1066-391.4,997.5L1991.4,997.5Z" class="qkNQwWCg_12"></path><path d="M800-1031.9-362.7,982L1962.7,982Z" class="qkNQwWCg_13"></path><path d="M800-997.8-334.1,966.6L1934.1,966.6Z" class="qkNQwWCg_14"></path><path d="M800-963.7-305.5,951.1L1905.5,951.1Z" class="qkNQwWCg_15"></path><path d="M800-929.6-276.9,935.7L1876.9,935.7Z" class="qkNQwWCg_16"></path><path d="M800-895.5-248.3,920.2L1848.3,920.2Z" class="qkNQwWCg_17"></path><path d="M800-861.4-219.7,904.7L1819.7,904.7Z" class="qkNQwWCg_18"></path><path d="M800-827.3-191.1,889.3L1791.1,889.3Z" class="qkNQwWCg_19"></path><path d="M800-793.2-162.5,873.8L1762.5,873.8Z" class="qkNQwWCg_20"></path><path d="M800-759.1-133.9,858.4L1733.9,858.4Z" class="qkNQwWCg_21"></path><path d="M800-725-105.3,842.9L1705.3,842.9Z" class="qkNQwWCg_22"></path><path d="M800-690.9-76.7,827.5L1676.7,827.5Z" class="qkNQwWCg_23"></path><path d="M800-656.8-48.1,812L1648.1,812Z" class="qkNQwWCg_24"></path><path d="M800-622.7-19.4,796.6L1619.4,796.6Z" class="qkNQwWCg_25"></path><path d="M800-588.6,9.2L781.1,1590.8L781.1,undefinedZ" class="qkNQwWCg_26"></path><path d="M800-554.5,37.8L765.7,1562.2L765.7,undefinedZ" class="qkNQwWCg_27"></path><path d="M800-520.5,66.4L750.2,1533.6L750.2,undefinedZ" class="qkNQwWCg_28"></path><path d="M800-486.4,95L734.8,1505L734.8,undefinedZ" class="qkNQwWCg_29"></path><path d="M800-452.3,123.6L719.3,1476.4L719.3,undefinedZ" class="qkNQwWCg_30"></path><path d="M800-418.2,152.2L703.9,1447.8L703.9,undefinedZ" class="qkNQwWCg_31"></path><path d="M800-384.1,180.8L688.4,1419.2L688.4,undefinedZ" class="qkNQwWCg_32"></path><path d="M800-350,209.4L673,1390.6L673,undefinedZ" class="qkNQwWCg_33"></path><path d="M800-315.9,238L657.5,1362L657.5,undefinedZ" class="qkNQwWCg_34"></path><path d="M800-281.8,266.6L642,1333.4L642,undefinedZ" class="qkNQwWCg_35"></path><path d="M800-247.7,295.2L626.6,1304.8L626.6,undefinedZ" class="qkNQwWCg_36"></path><path d="M800-213.6,323.9L611.1,1276.1L611.1,undefinedZ" class="qkNQwWCg_37"></path><path d="M800-179.5,352.5L595.7,1247.5L595.7,undefinedZ" class="qkNQwWCg_38"></path><path d="M800-145.4,381.1L580.2,1218.9L580.2,undefinedZ" class="qkNQwWCg_39"></path><path d="M800-111.3,409.7L564.8,1190.3L564.8,undefinedZ" class="qkNQwWCg_40"></path><path d="M800-77.2,438.3L549.3,1161.7L549.3,undefinedZ" class="qkNQwWCg_41"></path><path d="M800-43.1,466.9L533.9,1133.1L533.9,undefinedZ" class="qkNQwWCg_42"></path><path d="M800-9,495.5L518.4,1104.5L518.4,undefinedZ" class="qkNQwWCg_43"></path><path d="M800,25.1L524.1,503L1075.9,503Z" class="qkNQwWCg_44"></path><path d="M800,59.2L552.7,487.5L1047.3,487.5Z" class="qkNQwWCg_45"></path><path d="M800,93.3L581.3,472.1L1018.7,472.1Z" class="qkNQwWCg_46"></path><path d="M800,127.4L609.9,456.6L990.1,456.6Z" class="qkNQwWCg_47"></path><path d="M800,161.5L638.5,441.2L961.5,441.2Z" class="qkNQwWCg_48"></path><path d="M800,195.6L667.2,425.7L932.8,425.7Z" class="qkNQwWCg_49"></path><path d="M800,229.7L695.8,410.2L904.2,410.2Z" class="qkNQwWCg_50"></path><path d="M800,263.8L724.4,394.8L875.6,394.8Z" class="qkNQwWCg_51"></path><path d="M800,297.9L753,379.3L847,379.3Z" class="qkNQwWCg_52"></path><path d="M800,332L781.6,363.9L818.4,363.9Z" class="qkNQwWCg_53"></path></g><path fill-opacity="0.35" fill="url(#b)" width="1600" height="900" d="M0 0 L1600 0 L1600 900 L0 900 Z" class="qkNQwWCg_54"></path><style data-made-with="vivus-instant">.qkNQwWCg_0{stroke-dasharray:5000 5002;stroke-dashoffset:5001;animation:qkNQwWCg_draw 2000ms linear 0ms forwards;}.qkNQwWCg_1{stroke-dasharray:5000 5002;stroke-dashoffset:5001;animation:qkNQwWCg_draw 2000ms linear 18ms forwards;}.qkNQwWCg_2{stroke-dasharray:8865 8867;stroke-dashoffset:8866;animation:qkNQwWCg_draw 2000ms linear 37ms forwards;}.qkNQwWCg_3{stroke-dasharray:8693 8695;stroke-dashoffset:8694;animation:qkNQwWCg_draw 2000ms linear 55ms forwards;}.qkNQwWCg_4{stroke-dasharray:8522 8524;stroke-dashoffset:8523;animation:qkNQwWCg_draw 2000ms linear 74ms forwards;}.qkNQwWCg_5{stroke-dasharray:8350 8352;stroke-dashoffset:8351;animation:qkNQwWCg_draw 2000ms linear 92ms forwards;}.qkNQwWCg_6{stroke-dasharray:8179 8181;stroke-dashoffset:8180;animation:qkNQwWCg_draw 2000ms linear 111ms forwards;}.qkNQwWCg_7{stroke-dasharray:8007 8009;stroke-dashoffset:8008;animation:qkNQwWCg_draw 2000ms linear 129ms forwards;}.qkNQwWCg_8{stroke-dasharray:7835 7837;stroke-dashoffset:7836;animation:qkNQwWCg_draw 2000ms linear 148ms forwards;}.qkNQwWCg_9{stroke-dasharray:7664 7666;stroke-dashoffset:7665;animation:qkNQwWCg_draw 2000ms linear 166ms forwards;}.qkNQwWCg_10{stroke-dasharray:7492 7494;stroke-dashoffset:7493;animation:qkNQwWCg_draw 2000ms linear 185ms forwards;}.qkNQwWCg_11{stroke-dasharray:7320 7322;stroke-dashoffset:7321;animation:qkNQwWCg_draw 2000ms linear 203ms forwards;}.qkNQwWCg_12{stroke-dasharray:7149 7151;stroke-dashoffset:7150;animation:qkNQwWCg_draw 2000ms linear 222ms forwards;}.qkNQwWCg_13{stroke-dasharray:6977 6979;stroke-dashoffset:6978;animation:qkNQwWCg_draw 2000ms linear 240ms forwards;}.qkNQwWCg_14{stroke-dasharray:6805 6807;stroke-dashoffset:6806;animation:qkNQwWCg_draw 2000ms linear 259ms forwards;}.qkNQwWCg_15{stroke-dasharray:6634 6636;stroke-dashoffset:6635;animation:qkNQwWCg_draw 2000ms linear 277ms forwards;}.qkNQwWCg_16{stroke-dasharray:6462 6464;stroke-dashoffset:6463;animation:qkNQwWCg_draw 2000ms linear 296ms forwards;}.qkNQwWCg_17{stroke-dasharray:6290 6292;stroke-dashoffset:6291;animation:qkNQwWCg_draw 2000ms linear 314ms forwards;}.qkNQwWCg_18{stroke-dasharray:6119 6121;stroke-dashoffset:6120;animation:qkNQwWCg_draw 2000ms linear 333ms forwards;}.qkNQwWCg_19{stroke-dasharray:5947 5949;stroke-dashoffset:5948;animation:qkNQwWCg_draw 2000ms linear 351ms forwards;}.qkNQwWCg_20{stroke-dasharray:5775 5777;stroke-dashoffset:5776;animation:qkNQwWCg_draw 2000ms linear 370ms forwards;}.qkNQwWCg_21{stroke-dasharray:5604 5606;stroke-dashoffset:5605;animation:qkNQwWCg_draw 2000ms linear 388ms forwards;}.qkNQwWCg_22{stroke-dasharray:5432 5434;stroke-dashoffset:5433;animation:qkNQwWCg_draw 2000ms linear 407ms forwards;}.qkNQwWCg_23{stroke-dasharray:5261 5263;stroke-dashoffset:5262;animation:qkNQwWCg_draw 2000ms linear 425ms forwards;}.qkNQwWCg_24{stroke-dasharray:5089 5091;stroke-dashoffset:5090;animation:qkNQwWCg_draw 2000ms linear 444ms forwards;}.qkNQwWCg_25{stroke-dasharray:4917 4919;stroke-dashoffset:4918;animation:qkNQwWCg_draw 2000ms linear 462ms forwards;}.qkNQwWCg_26{stroke-dasharray:0 2;stroke-dashoffset:1;animation:qkNQwWCg_draw 2000ms linear 481ms forwards;}.qkNQwWCg_27{stroke-dasharray:0 2;stroke-dashoffset:1;animation:qkNQwWCg_draw 2000ms linear 500ms forwards;}.qkNQwWCg_28{stroke-dasharray:0 2;stroke-dashoffset:1;animation:qkNQwWCg_draw 2000ms linear 518ms forwards;}.qkNQwWCg_29{stroke-dasharray:0 2;stroke-dashoffset:1;animation:qkNQwWCg_draw 2000ms linear 537ms forwards;}.qkNQwWCg_30{stroke-dasharray:0 2;stroke-dashoffset:1;animation:qkNQwWCg_draw 2000ms linear 555ms forwards;}.qkNQwWCg_31{stroke-dasharray:0 2;stroke-dashoffset:1;animation:qkNQwWCg_draw 2000ms linear 574ms forwards;}.qkNQwWCg_32{stroke-dasharray:0 2;stroke-dashoffset:1;animation:qkNQwWCg_draw 2000ms linear 592ms forwards;}.qkNQwWCg_33{stroke-dasharray:0 2;stroke-dashoffset:1;animation:qkNQwWCg_draw 2000ms linear 611ms forwards;}.qkNQwWCg_34{stroke-dasharray:0 2;stroke-dashoffset:1;animation:qkNQwWCg_draw 2000ms linear 629ms forwards;}.qkNQwWCg_35{stroke-dasharray:0 2;stroke-dashoffset:1;animation:qkNQwWCg_draw 2000ms linear 648ms forwards;}.qkNQwWCg_36{stroke-dasharray:0 2;stroke-dashoffset:1;animation:qkNQwWCg_draw 2000ms linear 666ms forwards;}.qkNQwWCg_37{stroke-dasharray:0 2;stroke-dashoffset:1;animation:qkNQwWCg_draw 2000ms linear 685ms forwards;}.qkNQwWCg_38{stroke-dasharray:0 2;stroke-dashoffset:1;animation:qkNQwWCg_draw 2000ms linear 703ms forwards;}.qkNQwWCg_39{stroke-dasharray:0 2;stroke-dashoffset:1;animation:qkNQwWCg_draw 2000ms linear 722ms forwards;}.qkNQwWCg_40{stroke-dasharray:0 2;stroke-dashoffset:1;animation:qkNQwWCg_draw 2000ms linear 740ms forwards;}.qkNQwWCg_41{stroke-dasharray:0 2;stroke-dashoffset:1;animation:qkNQwWCg_draw 2000ms linear 759ms forwards;}.qkNQwWCg_42{stroke-dasharray:0 2;stroke-dashoffset:1;animation:qkNQwWCg_draw 2000ms linear 777ms forwards;}.qkNQwWCg_43{stroke-dasharray:0 2;stroke-dashoffset:1;animation:qkNQwWCg_draw 2000ms linear 796ms forwards;}.qkNQwWCg_44{stroke-dasharray:1656 1658;stroke-dashoffset:1657;animation:qkNQwWCg_draw 2000ms linear 814ms forwards;}.qkNQwWCg_45{stroke-dasharray:1484 1486;stroke-dashoffset:1485;animation:qkNQwWCg_draw 2000ms linear 833ms forwards;}.qkNQwWCg_46{stroke-dasharray:1313 1315;stroke-dashoffset:1314;animation:qkNQwWCg_draw 2000ms linear 851ms forwards;}.qkNQwWCg_47{stroke-dasharray:1141 1143;stroke-dashoffset:1142;animation:qkNQwWCg_draw 2000ms linear 870ms forwards;}.qkNQwWCg_48{stroke-dasharray:969 971;stroke-dashoffset:970;animation:qkNQwWCg_draw 2000ms linear 888ms forwards;}.qkNQwWCg_49{stroke-dasharray:797 799;stroke-dashoffset:798;animation:qkNQwWCg_draw 2000ms linear 907ms forwards;}.qkNQwWCg_50{stroke-dasharray:626 628;stroke-dashoffset:627;animation:qkNQwWCg_draw 2000ms linear 925ms forwards;}.qkNQwWCg_51{stroke-dasharray:454 456;stroke-dashoffset:455;animation:qkNQwWCg_draw 2000ms linear 944ms forwards;}.qkNQwWCg_52{stroke-dasharray:282 284;stroke-dashoffset:283;animation:qkNQwWCg_draw 2000ms linear 962ms forwards;}.qkNQwWCg_53{stroke-dasharray:111 113;stroke-dashoffset:112;animation:qkNQwWCg_draw 2000ms linear 981ms forwards;}.qkNQwWCg_54{stroke-dasharray:5000 5002;stroke-dashoffset:5001;animation:qkNQwWCg_draw 2000ms linear 1000ms forwards;}@keyframes qkNQwWCg_draw{100%{stroke-dashoffset:0;}}@keyframes qkNQwWCg_fade{0%{stroke-opacity:1;}94.44444444444444%{stroke-opacity:1;}100%{stroke-opacity:0;}}</style></svg>